# xmcd CD database file generated by Grip 3.2.0
# 
# Track frame offsets:
#       150
#       26022
#       43047
#       60627
#       81383
#       116038
#       124235
#       173465
#       215443
#       232365
# 
# Disc length: 3579 seconds
# 
# Revision: 3
# Processed by: cddbd v1.5.2PL0 Copyright (c) Steve Scherf et al.
# Submitted via: Grip 3.2.0
# 
DISCID=8e0df90a
DTITLE=Various Artist - Impressed 2 with Gilles Peterson
DYEAR=2004
DGENRE=Jazz
TTITLE0=Michael Garrick Septet - Ursula
TTITLE1=The Stan Tracey Quartet - Starless and Bible Black
TTITLE2=Paul Gonsalves Quartet - Boom Jackie Boom Chick
TTITLE3=Harold McNair - The Hipster
TTITLE4=The New Jazz Orchestra - Le Dejeuner Sur L'Herbe
TTITLE5=Mike Taylor Remembered - Timewind
TTITLE6=Amancio D'Silva - A Street in Bombay
TTITLE7=Tubby Hayes and the Paul Gonsalves All Stars - Don't Fall Off The 
TTITLE7=Bridge
TTITLE8=Neil Ardley - Will You Walk A Little Faster
TTITLE9=Mike Westbrook - Metropolis (Part IX)
EXTD=YEAR: 2004
EXTT0=
EXTT1=
EXTT2=
EXTT3=
EXTT4=
EXTT5=
EXTT6=
EXTT7=
EXTT8=
EXTT9=
PLAYORDER=
